<svg width="337" height="50" viewBox="0 0 337 50" fill="none" xmlns="http://www.w3.org/2000/svg">
<path d="M0 0.892678H27.2267V8.0341H8.48044V16.9609H24.6974V23.656H8.48044V39.5754H0V0.892678Z" fill="black"/>
<path d="M63.2314 30.4998C63.2314 33.9218 66.0582 35.2608 69.1826 35.2608C72.3069 35.2608 74.2411 34.3681 74.2411 31.6901C74.2411 29.012 71.1167 28.5657 65.4631 27.3755C60.9997 26.334 56.5363 24.8462 56.5363 19.9365C56.5363 12.7951 62.6362 11.0097 68.7362 11.0097C74.8362 11.0097 80.4898 13.0926 81.0849 19.9365H73.7947C73.6459 16.9609 71.2655 16.217 68.5874 16.217C65.9094 16.217 64.2728 16.5145 64.2728 18.7462C64.2728 20.9779 68.5874 21.8706 73.0508 22.9121C77.5142 23.9535 81.9776 25.5901 81.9776 30.7974C81.9776 38.0876 75.5801 40.4681 69.1826 40.4681C62.785 40.4681 56.3875 38.0876 56.0899 30.6486H63.3801L63.2314 30.4998Z" fill="black"/>
<path d="M84.0605 0.892678H91.7971V15.4731H91.9458C93.88 12.3487 97.3019 10.8609 100.129 10.8609C108.312 10.8609 110.395 15.4731 110.395 22.317V39.5754H102.658V23.8048C102.658 19.1926 101.319 16.9609 97.7483 16.9609C94.1775 16.9609 91.7971 19.3414 91.7971 24.995V39.7242H84.0605V0.892678Z" fill="black"/>
<path d="M121.107 7.29021H113.37V0.892678H121.107V7.29021ZM113.37 11.6048H121.107V39.5754H113.37V11.6048Z" fill="black"/>
<path d="M137.77 10.8609C146.548 10.8609 152.202 16.6633 152.202 25.5901C152.202 34.5169 146.548 40.3193 137.77 40.3193C128.992 40.3193 123.338 34.5169 123.338 25.5901C123.338 16.6633 128.992 10.8609 137.77 10.8609ZM137.77 34.5169C142.977 34.5169 144.614 30.0535 144.614 25.5901C144.614 21.1267 142.977 16.6633 137.77 16.6633C132.563 16.6633 131.075 21.1267 131.075 25.5901C131.075 30.0535 132.711 34.5169 137.77 34.5169Z" fill="black"/>
<path d="M161.724 11.6048V15.4731H161.872C163.806 12.3487 167.228 10.8609 170.353 10.8609C178.536 10.8609 180.619 15.4731 180.619 22.317V39.5754H172.882V23.8048C172.882 19.1926 171.543 16.9609 167.972 16.9609C164.402 16.9609 162.021 19.3414 162.021 24.995V39.7242H154.285V11.6048H161.724Z" fill="black"/>
<path d="M209.035 35.7071C205.911 38.6827 202.489 40.3193 198.175 40.3193C191.182 40.3193 185.677 36.0047 185.677 28.7145C185.677 21.4243 189.843 19.6389 194.306 17.556C192.223 15.0267 190.587 12.6463 190.587 9.37312C190.587 4.01705 195.497 0.595119 200.704 0.595119C205.911 0.595119 211.267 3.71949 211.267 9.81946C211.267 15.9194 208.292 17.4072 204.423 19.4901L209.333 25.5901C210.077 24.2511 210.523 22.6145 210.672 20.9779H217.367C216.921 24.3999 215.731 27.8218 213.648 30.4998L221.533 39.5754H212.16L209.035 35.7071ZM198.323 22.4657C195.645 23.656 192.967 25.7389 192.967 28.8633C192.967 31.9876 195.497 33.9218 198.472 33.9218C201.448 33.9218 203.233 32.5828 205.018 30.4998L198.472 22.4657H198.323ZM201.001 5.50485C199.216 5.50485 197.579 6.84387 197.579 8.92678C197.579 11.0097 199.216 12.9438 200.555 14.7292C202.787 13.3902 204.572 12.0512 204.572 9.22434C204.572 6.39753 202.936 5.50485 201.001 5.50485Z" fill="black"/>
<path d="M53.2631 33.3266V18.7462C53.2631 12.0512 46.568 10.8609 40.9144 10.8609C35.2608 10.8609 28.4169 12.9438 27.8218 19.7877H35.5583C36.0047 17.1097 37.79 16.0682 40.6169 16.0682C43.4437 16.0682 45.5266 16.5145 45.5266 19.7877C45.5266 23.0609 41.212 22.7633 36.451 23.5072C31.6901 24.1023 26.9291 25.7389 26.9291 31.9876C26.9291 38.2364 31.095 40.3193 36.451 40.3193C41.8071 40.3193 43.4437 39.4266 45.8241 36.8974C45.8241 37.79 46.1217 38.6827 46.4193 39.5754H54.1558C53.4119 38.3852 53.1143 35.8559 53.1143 33.3266M45.3778 28.7145C45.3778 30.3511 45.229 35.112 39.1291 35.112C33.0291 35.112 34.3681 34.3681 34.3681 31.5413C34.3681 28.7145 36.5998 27.9706 38.9803 27.3755C41.3608 26.9291 44.0388 26.9291 45.3778 25.7389V28.7145Z" fill="black"/>
<path d="M264.828 11.6048H270.481V16.8121H264.828V30.6486C264.828 33.1779 265.423 33.9218 268.101 33.9218C270.779 33.9218 269.738 33.9218 270.481 33.773V39.7242C269.142 39.873 267.506 40.0217 266.018 40.0217C261.257 40.0217 257.24 38.9803 257.24 33.3266V0.892678H264.977V11.6048H264.828Z" fill="black"/>
<path d="M285.359 43.1461C283.723 47.6095 281.045 49.5436 275.689 49.5436C270.333 49.5436 272.564 49.5436 270.928 49.2461V42.8485C272.416 42.8485 273.903 43.1461 275.391 43.1461C278.069 42.8485 278.962 40.1705 278.069 37.9388L268.25 11.7536H276.433L282.83 30.9462L288.93 11.7536H296.964L285.211 43.2949L285.359 43.1461Z" fill="black"/>
<path d="M306.784 0.892678H299.047V39.5754H306.784V0.892678Z" fill="black"/>
<path d="M316.603 27.3755C316.752 32.2852 319.132 34.5169 323.447 34.5169C327.762 34.5169 328.952 32.5828 329.547 30.9462H336.242C334.01 37.4925 329.547 40.3193 323.149 40.3193C316.752 40.3193 308.867 34.2193 308.867 25.5901C308.867 16.9609 314.669 10.8609 323.149 10.8609C331.63 10.8609 337.284 18.895 336.688 27.5242H316.454L316.603 27.3755ZM329.101 22.4657C328.357 18.5975 326.72 16.5145 323.001 16.5145C319.281 16.5145 316.752 20.234 316.603 22.4657H329.101Z" fill="black"/>
<path d="M243.552 16.8121C233.882 14.2829 232.096 13.9853 232.096 11.0097C232.096 8.0341 235.221 6.69509 237.899 6.69509C240.577 6.69509 244.891 7.73654 245.486 11.6048H253.818C253.372 3.27315 246.23 0 238.345 0C230.46 0 223.913 3.71949 223.913 11.7536C223.913 19.7877 229.716 21.2755 235.369 22.7633C241.023 24.2511 246.826 24.995 246.826 29.1608C246.826 33.3267 242.213 33.9218 239.238 33.9218C234.626 33.9218 230.757 31.9876 230.757 26.7803H222.574C222.574 36.3022 230.46 40.4681 239.089 40.4681C247.718 40.4681 255.157 35.112 255.157 28.1194C255.157 21.1267 246.528 17.556 243.701 16.8121" fill="black"/>
</svg>
