<svg xmlns="http://www.w3.org/2000/svg" width="58" height="31" viewBox="0 0 58 31" fill="none">
<path fill-rule="evenodd" clip-rule="evenodd" d="M19.2985 0.503005C18.8997 0.89341 18.8997 1.52639 19.2985 1.91679L28.2773 10.7072C28.6761 11.0976 29.3226 11.0976 29.7214 10.7072C30.1202 10.3168 30.1202 9.68382 29.7214 9.29341L20.7426 0.503005C20.3439 0.112599 19.6973 0.112599 19.2985 0.503005Z" fill="#6B6B6B"/>
<path fill-rule="evenodd" clip-rule="evenodd" d="M38.7009 0.503018C38.3021 0.112613 37.6556 0.112613 37.2568 0.503018L28.2778 9.29318C27.879 9.68359 27.8785 10.3168 28.2773 10.7072C28.6761 11.0976 29.3226 11.0976 29.7214 10.7072L38.7009 1.9168C39.0997 1.5264 39.0997 0.893424 38.7009 0.503018Z" fill="#6B6B6B"/>
</svg>