<svg xmlns="http://www.w3.org/2000/svg" width="31" height="58" viewBox="0 0 31 58" fill="none">
  <path fill-rule="evenodd" clip-rule="evenodd" d="M20.503 38.7015C20.8934 39.1003 21.5264 39.1003 21.9168 38.7015L30.7072 29.7227C31.0976 29.3239 31.0976 28.6774 30.7072 28.2786C30.3168 27.8798 29.6838 27.8798 29.2934 28.2786L20.503 37.2574C20.1126 37.6561 20.1126 38.3027 20.503 38.7015Z" fill="#6B6B6B"/>
  <path fill-rule="evenodd" clip-rule="evenodd" d="M20.503 19.2991C20.1126 19.6979 20.1126 20.3444 20.503 20.7432L29.2932 29.7222C29.6836 30.121 30.3168 30.1215 30.7072 29.7227C31.0976 29.3239 31.0976 28.6774 30.7072 28.2786L21.9168 19.2991C21.5264 18.9003 20.8934 18.9003 20.503 19.2991Z" fill="#6B6B6B"/>
</svg>