<svg xmlns="http://www.w3.org/2000/svg" width="31" height="58" viewBox="0 0 31 58" fill="none">
  <path fill-rule="evenodd" clip-rule="evenodd" d="M10.497 38.7015C10.1066 39.1003 9.47361 39.1003 9.08321 38.7015L0.292805 29.7227C-0.0976017 29.3239 -0.0976014 28.6774 0.292805 28.2786C0.683211 27.8798 1.31618 27.8798 1.70659 28.2786L10.497 37.2574C10.8874 37.6561 10.8874 38.3027 10.497 38.7015Z" fill="#6B6B6B"/>
  <path fill-rule="evenodd" clip-rule="evenodd" d="M10.497 19.2991C10.8874 19.6979 10.8874 20.3444 10.497 20.7432L1.70682 29.7222C1.31641 30.121 0.683211 30.1215 0.292805 29.7227C-0.0976017 29.3239 -0.0976014 28.6774 0.292805 28.2786L9.0832 19.2991C9.4736 18.9003 10.1066 18.9003 10.497 19.2991Z" fill="#6B6B6B"/>
</svg>