<svg width="98" height="98" viewBox="0 0 98 98" fill="none" xmlns="http://www.w3.org/2000/svg">
<g filter="url(#filter0_d_833_13095)">
<rect x="4" y="2" width="90" height="90" rx="20" fill="white" shape-rendering="crispEdges"/>
<path d="M65.461 44.5308C58.5658 42.7242 57.2551 42.4513 57.2551 40.2891C57.2551 37.933 59.4889 37.107 61.4127 37.107C64.3018 37.107 66.6519 38.0911 66.8421 41.4672H72.6979C72.6979 34.9915 67.4235 32.3158 61.684 32.3158C58.5834 32.3158 55.3455 33.3861 53.3513 35.5877C52.0265 33.659 49.6342 32.6714 46.9036 32.6714H24.3684V61.4041H30.4144V49.8715H36.9643C36.4781 50.852 36.1997 51.9474 36.1997 53.165C36.1997 58.4661 40.1282 61.5657 45.0961 61.5657C48.2178 61.5657 50.6419 60.4272 52.8404 58.2291C55.0495 60.5888 58.5517 61.6842 62.1913 61.6842C69.6643 61.6842 73.6316 57.834 73.6316 52.6945C73.6316 46.3338 67.4693 45.0372 65.4645 44.5272L65.461 44.5308ZM47.1749 36.403C48.5243 36.403 49.6765 37.6206 49.6765 39.0716C49.6765 41.1152 48.4081 42.0562 46.8648 43.0762C45.8255 41.7796 44.7086 40.6447 44.7086 38.874C44.7086 37.423 45.8642 36.3994 47.1714 36.3994L47.1749 36.403ZM30.418 45.0839V37.854H39.871C39.7935 38.2419 39.7442 38.6478 39.7442 39.0716C39.7442 41.5067 40.8999 43.1947 42.362 45.0408C42.3303 45.0552 42.3057 45.0695 42.274 45.0839H30.4144H30.418ZM45.3287 56.9756C43.2499 56.9756 41.4002 55.3271 41.4002 53.2871C41.4002 51.01 43.3239 49.5195 45.2512 48.6539L49.9478 54.5046C48.6758 55.9556 47.2912 56.9756 45.3252 56.9756H45.3287ZM62.4203 56.9002C61.2154 56.9002 60.0668 56.6955 59.0943 56.2501C59.0943 56.2501 59.0873 56.2465 59.0837 56.2465C59.0767 56.2465 59.0697 56.2394 59.0626 56.2358C55.9374 54.9212 49.5672 46.3769 49.5672 46.3769C50.5855 45.8273 51.5121 45.1809 52.2767 44.4194C53.7036 46.9192 56.6667 47.9751 59.6087 48.7689C63.6535 49.8679 67.7758 50.3779 67.7758 53.402C67.7758 56.2681 64.5379 56.8966 62.4203 56.8966V56.9002Z" fill="black"/>
</g>
<defs>
<filter id="filter0_d_833_13095" x="0" y="0" width="98" height="98" filterUnits="userSpaceOnUse" color-interpolation-filters="sRGB">
<feFlood flood-opacity="0" result="BackgroundImageFix"/>
<feColorMatrix in="SourceAlpha" type="matrix" values="0 0 0 0 0 0 0 0 0 0 0 0 0 0 0 0 0 0 127 0" result="hardAlpha"/>
<feOffset dy="2"/>
<feGaussianBlur stdDeviation="2"/>
<feComposite in2="hardAlpha" operator="out"/>
<feColorMatrix type="matrix" values="0 0 0 0 0 0 0 0 0 0 0 0 0 0 0 0 0 0 0.2 0"/>
<feBlend mode="normal" in2="BackgroundImageFix" result="effect1_dropShadow_833_13095"/>
<feBlend mode="normal" in="SourceGraphic" in2="effect1_dropShadow_833_13095" result="shape"/>
</filter>
</defs>
</svg>
