<svg xmlns="http://www.w3.org/2000/svg" width="420" height="246" viewBox="0 0 420 246" fill="none">
<path d="M350.19 102.33C291.48 87.2401 280.32 84.9601 280.32 66.9001C280.32 47.2201 299.34 40.3201 315.72 40.3201C340.32 40.3201 360.33 48.5401 361.95 76.7401H411.81C411.81 22.6501 366.9 0.300049 318.03 0.300049C291.63 0.300049 264.06 9.24005 247.08 27.63C235.8 11.52 215.43 3.27005 192.18 3.27005H0.300049V243.27H51.78V146.94H107.55C103.41 155.13 101.04 164.28 101.04 174.45C101.04 218.73 134.49 244.62 176.79 244.62C203.37 244.62 224.01 235.11 242.73 216.75C261.54 236.46 291.36 245.61 322.35 245.61C385.98 245.61 419.76 213.45 419.76 170.52C419.76 117.39 367.29 106.56 350.22 102.3L350.19 102.33ZM194.49 34.4401C205.98 34.4401 215.79 44.6101 215.79 56.7301C215.79 73.8001 204.99 81.66 191.85 90.18C183 79.35 173.49 69.87 173.49 55.0801C173.49 42.9601 183.33 34.4101 194.46 34.4101L194.49 34.4401ZM51.8101 106.95V46.56H132.3C131.64 49.8 131.22 53.1901 131.22 56.7301C131.22 77.0701 141.06 91.17 153.51 106.59C153.24 106.71 153.03 106.83 152.76 106.95H51.78H51.8101ZM178.77 206.28C161.07 206.28 145.32 192.51 145.32 175.47C145.32 156.45 161.7 144 178.11 136.77L218.1 185.64C207.27 197.76 195.48 206.28 178.74 206.28H178.77ZM324.3 205.65C314.04 205.65 304.26 203.94 295.98 200.22C295.98 200.22 295.92 200.19 295.89 200.19C295.83 200.19 295.77 200.13 295.71 200.1C269.1 189.12 214.86 117.75 214.86 117.75C223.53 113.16 231.42 107.76 237.93 101.4C250.08 122.28 275.31 131.1 300.36 137.73C334.8 146.91 369.9 151.17 369.9 176.43C369.9 200.37 342.33 205.62 324.3 205.62V205.65Z" fill="black"/>
</svg>