<svg xmlns="http://www.w3.org/2000/svg" width="40" height="40" viewBox="0 0 40 40" fill="none">
<path d="M28.4549 0H11.5451C5.16924 0 0 5.16924 0 11.5451V28.4549C0 34.8308 5.16924 40 11.5451 40H28.4549C34.8308 40 40 34.8308 40 28.4549V11.5451C40 5.16924 34.8308 0 28.4549 0ZM36.3178 28.7523C36.3178 32.984 32.8877 36.4169 28.6532 36.4169H11.3468C7.11514 36.4169 3.6822 32.9868 3.6822 28.7523V11.446C3.6822 7.21428 7.11231 3.78133 11.3468 3.78133H28.6532C32.8849 3.78133 36.3178 7.21144 36.3178 11.446V28.7523Z" fill="#313131"/>
<path d="M20 9.72656C14.2671 9.72656 9.62183 14.3746 9.62183 20.1047C9.62183 25.8348 14.2699 30.4828 20 30.4828C25.73 30.4828 30.3781 25.8348 30.3781 20.1047C30.3781 14.3746 25.73 9.72656 20 9.72656ZM20 26.8346C16.2838 26.8346 13.2729 23.8209 13.2729 20.1075C13.2729 16.3942 16.2866 13.3804 20 13.3804C23.7133 13.3804 26.7271 16.3942 26.7271 20.1075C26.7271 23.8209 23.7133 26.8346 20 26.8346Z" fill="#313131"/>
<path d="M30.7248 11.749C32.0608 11.749 33.1438 10.666 33.1438 9.33005C33.1438 7.99412 32.0608 6.91113 30.7248 6.91113C29.3889 6.91113 28.3059 7.99412 28.3059 9.33005C28.3059 10.666 29.3889 11.749 30.7248 11.749Z" fill="#313131"/>
</svg>