<svg width="48" height="48" viewBox="0 0 48 48" fill="none" xmlns="http://www.w3.org/2000/svg">
<path d="M37.3658 21.6072C31.7671 20.1863 30.7029 19.9717 30.7029 18.2711C30.7029 16.418 32.5167 15.7683 34.0787 15.7683C36.4245 15.7683 38.3327 16.5423 38.4872 19.1977H43.2419C43.2419 14.1045 38.9592 12 34.299 12C31.7814 12 29.1523 12.8418 27.5331 14.5734C26.4574 13.0565 24.5149 12.2797 22.2978 12.2797H4V34.8783H8.90917V25.8077H14.2274C13.8326 26.5789 13.6066 27.4405 13.6066 28.3981C13.6066 32.5676 16.7965 35.0054 20.8302 35.0054C23.3649 35.0054 25.3331 34.1099 27.1183 32.3811C28.912 34.237 31.7557 35.0986 34.7109 35.0986C40.7787 35.0986 44 32.0704 44 28.0281C44 23.0253 38.9964 22.0055 37.3686 21.6044L37.3658 21.6072ZM22.5181 15.2147C23.6138 15.2147 24.5493 16.1723 24.5493 17.3135C24.5493 18.9208 23.5194 19.6609 22.2663 20.4632C21.4224 19.4434 20.5155 18.5508 20.5155 17.1581C20.5155 16.0169 21.4539 15.2118 22.5152 15.2118L22.5181 15.2147ZM8.91203 22.0423V16.3559H16.5876C16.5247 16.661 16.4846 16.9802 16.4846 17.3135C16.4846 19.2287 17.423 20.5564 18.6102 22.0084C18.5845 22.0197 18.5644 22.031 18.5387 22.0423H8.90917H8.91203ZM21.019 31.3953C19.3311 31.3953 17.8292 30.0987 17.8292 28.4942C17.8292 26.7032 19.3912 25.5309 20.9561 24.8501L24.7696 29.4518C23.7368 30.593 22.6125 31.3953 21.0162 31.3953H21.019ZM34.8969 31.3359C33.9185 31.3359 32.9858 31.1749 32.1963 30.8246C32.1963 30.8246 32.1905 30.8218 32.1877 30.8218C32.1819 30.8218 32.1762 30.8162 32.1705 30.8133C29.633 29.7794 24.4606 23.0592 24.4606 23.0592C25.2874 22.627 26.0398 22.1185 26.6606 21.5197C27.8192 23.4857 30.2251 24.3162 32.6139 24.9405C35.8982 25.8049 39.2453 26.206 39.2453 28.5845C39.2453 30.8388 36.6162 31.3331 34.8969 31.3331V31.3359Z" fill="black"/>
</svg>
