<svg xmlns="http://www.w3.org/2000/svg" width="24" height="24" viewBox="0 0 24 24" fill="none">
<path fill-rule="evenodd" clip-rule="evenodd" d="M5.0001 4.89998C4.94487 4.89998 4.9001 4.94475 4.9001 4.99998V19C4.9001 19.0552 4.94487 19.1 5.0001 19.1H19.0001C19.0553 19.1 19.1001 19.0552 19.1001 19V13.6H20.9001V19C20.9001 20.0493 20.0494 20.9 19.0001 20.9H5.0001C3.95076 20.9 3.1001 20.0493 3.1001 19V4.99998C3.1001 3.95063 3.95076 3.09998 5.0001 3.09998H10.4001V4.89998H5.0001ZM17.8273 4.89998H15.2001V3.09998H20.0001L20.9001 3.99998V8.79998H19.1001V6.17277L11.4365 13.8364L10.1637 12.5636L17.8273 4.89998Z" fill="black"/>
</svg>  