<svg xmlns="http://www.w3.org/2000/svg" width="24" height="24" viewBox="0 0 24 24" fill="none">
    <path fill-rule="evenodd" clip-rule="evenodd" d="M6.40745 4.24705C4.76553 4.78956 3.4001 6.49553 3.4001 8.49994C3.4001 9.25117 3.69123 10.1908 4.26397 11.2708C4.82995 12.3381 5.6334 13.4729 6.56696 14.595C8.25268 16.6212 10.3077 18.5407 12.0001 19.8675C13.6925 18.5407 15.7475 16.6212 17.4332 14.595C18.3668 13.4729 19.1702 12.3382 19.7362 11.2709C20.309 10.1908 20.6001 9.25121 20.6001 8.49998C20.6001 6.49557 19.2347 4.78958 17.5927 4.24707C16.791 3.98216 15.9381 3.99878 15.1353 4.37895C14.3296 4.76048 13.4929 5.54771 12.8115 6.96727H11.1887C10.5073 5.54771 9.67063 4.76047 8.86492 4.37895C8.06207 3.99877 7.20921 3.98214 6.40745 4.24705ZM12.0001 4.80398C11.3169 3.84901 10.5142 3.16834 9.63527 2.75212C8.37563 2.15564 7.04098 2.14202 5.84274 2.53793C3.48467 3.31705 1.6001 5.69695 1.6001 8.49994C1.6001 9.67167 2.03813 10.9155 2.67373 12.1141C3.31608 13.3255 4.20012 14.5646 5.18324 15.7462C7.14808 18.1079 9.57588 20.3201 11.4634 21.7224H12.5368C14.4243 20.3201 16.8521 18.1079 18.817 15.7462C19.8001 14.5646 20.6841 13.3255 21.3265 12.1142C21.9621 10.9156 22.4001 9.67171 22.4001 8.49998C22.4001 5.69699 20.5155 3.31708 18.1575 2.53795C16.9592 2.14204 15.6246 2.15565 14.3649 2.75213C13.486 3.16834 12.6833 3.84901 12.0001 4.80398Z" fill="black"/>
</svg>